<mxfile modified="2022-10-30T02:17:47.271Z" host="Electron" agent="5.0 (Windows NT 10.0; Win64; x64) AppleWebKit/537.36 (KHTML, like Gecko) draw.io/20.3.0 Chrome/104.0.5112.114 Electron/20.1.3 Safari/537.36" etag="50zMR6Gja8AvKNfdCMRn" compressed="false" version="20.3.0" type="device">
  <diagram id="OiE_WIeiyFu7MGLe8vVh" name="User Context/User Groups">
    <mxGraphModel dx="782" dy="515" grid="1" gridSize="10" guides="1" tooltips="1" connect="1" arrows="1" fold="1" page="1" pageScale="1" pageWidth="850" pageHeight="1100" math="0" shadow="0">
      <root>
        <mxCell id="1xYJOBjyP96TDNRi-POg-0" />
        <mxCell id="1xYJOBjyP96TDNRi-POg-1" value="Diagram" parent="1xYJOBjyP96TDNRi-POg-0" />
        <mxCell id="1xYJOBjyP96TDNRi-POg-11" value="School Group" style="rounded=0;whiteSpace=wrap;html=1;strokeWidth=1;fillColor=#f5f5f5;fontFamily=Helvetica;fontSize=12;fontColor=#333333;align=center;strokeColor=#666666;" parent="1xYJOBjyP96TDNRi-POg-1" vertex="1">
          <mxGeometry x="425" y="190" width="95" height="20" as="geometry" />
        </mxCell>
        <mxCell id="1xYJOBjyP96TDNRi-POg-12" value="School" style="rounded=0;whiteSpace=wrap;html=1;strokeWidth=1;fillColor=none;fontFamily=Helvetica;fontSize=12;fontColor=#000000;align=center;strokeColor=#000000;" parent="1xYJOBjyP96TDNRi-POg-1" vertex="1">
          <mxGeometry x="440" y="220" width="80" height="20" as="geometry" />
        </mxCell>
        <mxCell id="1xYJOBjyP96TDNRi-POg-13" value="School" style="rounded=0;whiteSpace=wrap;html=1;strokeWidth=1;fillColor=none;fontFamily=Helvetica;fontSize=12;fontColor=#000000;align=center;strokeColor=#000000;" parent="1xYJOBjyP96TDNRi-POg-1" vertex="1">
          <mxGeometry x="440" y="250" width="80" height="20" as="geometry" />
        </mxCell>
        <mxCell id="1xYJOBjyP96TDNRi-POg-14" value="Intermediate" style="rounded=0;whiteSpace=wrap;html=1;strokeWidth=1;fillColor=none;fontFamily=Helvetica;fontSize=12;fontColor=#000000;align=center;strokeColor=#000000;" parent="1xYJOBjyP96TDNRi-POg-1" vertex="1">
          <mxGeometry x="440" y="400" width="80" height="20" as="geometry" />
        </mxCell>
        <mxCell id="1xYJOBjyP96TDNRi-POg-15" value="School of ..." style="rounded=0;whiteSpace=wrap;html=1;strokeWidth=1;fillColor=none;fontFamily=Helvetica;fontSize=12;fontColor=#000000;align=center;strokeColor=#000000;" parent="1xYJOBjyP96TDNRi-POg-1" vertex="1">
          <mxGeometry x="600" y="480" width="80" height="20" as="geometry" />
        </mxCell>
        <mxCell id="1xYJOBjyP96TDNRi-POg-17" value="&lt;p style=&quot;line-height: 90%&quot;&gt;University Group&lt;/p&gt;" style="rounded=0;whiteSpace=wrap;html=1;strokeWidth=1;fillColor=#f5f5f5;fontFamily=Helvetica;fontSize=12;fontColor=#333333;align=center;strokeColor=#666666;" parent="1xYJOBjyP96TDNRi-POg-1" vertex="1">
          <mxGeometry x="560" y="420" width="120" height="20" as="geometry" />
        </mxCell>
        <mxCell id="1xYJOBjyP96TDNRi-POg-18" value="University of" style="rounded=0;whiteSpace=wrap;html=1;strokeWidth=1;fillColor=none;fontFamily=Helvetica;fontSize=12;fontColor=#000000;align=center;strokeColor=#000000;" parent="1xYJOBjyP96TDNRi-POg-1" vertex="1">
          <mxGeometry x="580" y="450" width="100" height="20" as="geometry" />
        </mxCell>
        <mxCell id="1xYJOBjyP96TDNRi-POg-36" value="EL Center" style="rounded=0;whiteSpace=wrap;html=1;strokeWidth=1;fillColor=none;fontFamily=Helvetica;fontSize=12;fontColor=#000000;align=center;strokeColor=#000000;" parent="1xYJOBjyP96TDNRi-POg-1" vertex="1">
          <mxGeometry x="440" y="340" width="80" height="20" as="geometry" />
        </mxCell>
        <mxCell id="1xYJOBjyP96TDNRi-POg-37" value="Primary" style="rounded=0;whiteSpace=wrap;html=1;strokeWidth=1;fillColor=none;fontFamily=Helvetica;fontSize=12;fontColor=#000000;align=center;strokeColor=#000000;" parent="1xYJOBjyP96TDNRi-POg-1" vertex="1">
          <mxGeometry x="440" y="370" width="80" height="20" as="geometry" />
        </mxCell>
        <mxCell id="1xYJOBjyP96TDNRi-POg-38" value="Secondary" style="rounded=0;whiteSpace=wrap;html=1;strokeWidth=1;fillColor=none;fontFamily=Helvetica;fontSize=12;fontColor=#000000;align=center;strokeColor=#000000;" parent="1xYJOBjyP96TDNRi-POg-1" vertex="1">
          <mxGeometry x="440" y="430" width="80" height="20" as="geometry" />
        </mxCell>
        <mxCell id="1xYJOBjyP96TDNRi-POg-39" value="&lt;p style=&quot;line-height: 90%&quot;&gt;Regional Group&lt;/p&gt;" style="rounded=0;whiteSpace=wrap;html=1;strokeWidth=1;fillColor=#f5f5f5;fontFamily=Helvetica;fontSize=12;fontColor=#333333;align=center;strokeColor=#666666;" parent="1xYJOBjyP96TDNRi-POg-1" vertex="1">
          <mxGeometry x="425" y="310" width="95" height="20" as="geometry" />
        </mxCell>
        <mxCell id="1xYJOBjyP96TDNRi-POg-40" value="&lt;p style=&quot;line-height: 90% ; font-size: 11px&quot;&gt;&lt;font style=&quot;font-size: 11px&quot;&gt;National&lt;/font&gt; Interest Group&lt;/p&gt;" style="rounded=0;whiteSpace=wrap;html=1;strokeWidth=1;fillColor=#f5f5f5;fontFamily=Helvetica;fontSize=12;fontColor=#333333;align=center;strokeColor=#666666;" parent="1xYJOBjyP96TDNRi-POg-1" vertex="1">
          <mxGeometry x="560" y="190" width="120" height="20" as="geometry" />
        </mxCell>
        <mxCell id="1xYJOBjyP96TDNRi-POg-42" value="&lt;p style=&quot;line-height: 90%&quot;&gt;Internal School Group&lt;/p&gt;" style="rounded=0;whiteSpace=wrap;html=1;strokeWidth=1;fillColor=none;fontFamily=Helvetica;fontSize=12;fontColor=#000000;align=center;strokeColor=#000000;" parent="1xYJOBjyP96TDNRi-POg-1" vertex="1">
          <mxGeometry x="580" y="220" width="100" height="20" as="geometry" />
        </mxCell>
        <mxCell id="1xYJOBjyP96TDNRi-POg-44" value="&lt;p style=&quot;line-height: 90%&quot;&gt;Internal School Group&lt;/p&gt;" style="rounded=0;whiteSpace=wrap;html=1;strokeWidth=1;fillColor=none;fontFamily=Helvetica;fontSize=12;fontColor=#000000;align=center;strokeColor=#000000;" parent="1xYJOBjyP96TDNRi-POg-1" vertex="1">
          <mxGeometry x="580" y="250" width="100" height="20" as="geometry" />
        </mxCell>
        <mxCell id="1xYJOBjyP96TDNRi-POg-50" value="&lt;p style=&quot;line-height: 90%&quot;&gt;Parent Groups&lt;/p&gt;" style="rounded=0;whiteSpace=wrap;html=1;strokeWidth=1;fillColor=#f5f5f5;fontFamily=Helvetica;fontSize=12;fontColor=#333333;align=center;strokeColor=#666666;" parent="1xYJOBjyP96TDNRi-POg-1" vertex="1">
          <mxGeometry x="560" y="290" width="120" height="20" as="geometry" />
        </mxCell>
        <mxCell id="1xYJOBjyP96TDNRi-POg-52" value="&lt;p style=&quot;line-height: 90%&quot;&gt;Home Schooling Grp&lt;/p&gt;" style="rounded=0;whiteSpace=wrap;html=1;strokeWidth=1;fillColor=none;fontFamily=Helvetica;fontSize=12;fontColor=#000000;align=center;strokeColor=#000000;" parent="1xYJOBjyP96TDNRi-POg-1" vertex="1">
          <mxGeometry x="580" y="320" width="100" height="20" as="geometry" />
        </mxCell>
        <mxCell id="1xYJOBjyP96TDNRi-POg-53" value="&lt;p style=&quot;line-height: 90%&quot;&gt;Early Learning Grp&lt;/p&gt;" style="rounded=0;whiteSpace=wrap;html=1;strokeWidth=1;fillColor=none;fontFamily=Helvetica;fontSize=12;fontColor=#000000;align=center;strokeColor=#000000;" parent="1xYJOBjyP96TDNRi-POg-1" vertex="1">
          <mxGeometry x="580" y="350" width="100" height="20" as="geometry" />
        </mxCell>
        <mxCell id="1xYJOBjyP96TDNRi-POg-54" value="&lt;p style=&quot;line-height: 90%&quot;&gt;Ministry Guidance Grp&lt;/p&gt;" style="rounded=0;whiteSpace=wrap;html=1;strokeWidth=1;fillColor=none;fontFamily=Helvetica;fontSize=12;fontColor=#000000;align=center;strokeColor=#000000;" parent="1xYJOBjyP96TDNRi-POg-1" vertex="1">
          <mxGeometry x="580" y="380" width="100" height="20" as="geometry" />
        </mxCell>
        <mxCell id="aKtWH_4gdfOqpud3Ktek-2" value="Title/Diagram" parent="1xYJOBjyP96TDNRi-POg-0" />
        <mxCell id="1xYJOBjyP96TDNRi-POg-3" value="&lt;font style=&quot;font-size: 12px&quot;&gt;&lt;span style=&quot;font-size: 12px&quot;&gt;Diagram:&amp;nbsp;&lt;/span&gt;User Context - Education Sector Groups&lt;/font&gt;" style="text;strokeColor=none;fillColor=none;html=1;fontSize=24;fontStyle=2;verticalAlign=middle;align=left;shadow=0;glass=0;comic=0;opacity=30;fontColor=#808080;" parent="aKtWH_4gdfOqpud3Ktek-2" vertex="1">
          <mxGeometry x="120" y="520" width="560" height="20" as="geometry" />
        </mxCell>
      </root>
    </mxGraphModel>
  </diagram>
</mxfile>
